<svg width="35" height="35" viewBox="0 0 35 35" fill="none" xmlns="http://www.w3.org/2000/svg">
<path d="M29.2193 5.69C26.2725 2.5956 22.1722 0.618705 17.567 0.5047C8.35667 0.276691 0.732979 7.54783 0.505112 16.7524C0.277245 25.957 7.53181 33.5965 16.7422 33.8245C24.5147 34.0169 31.1267 28.867 33.1592 21.7283L28.8249 21.621C26.9961 26.4309 22.284 29.7942 16.8453 29.6595C9.94792 29.4888 4.48121 23.7481 4.65185 16.8551C4.8225 9.96205 10.5666 4.49892 17.4639 4.66967C20.923 4.75531 23.9714 6.26857 26.1657 8.59419L19.2899 15.1337L33.8765 15.4948L34.2373 0.917387L29.2193 5.69Z" fill="#E6FFF6"/>
</svg>
