<svg width="30" height="24" viewBox="0 0 30 24" fill="none" xmlns="http://www.w3.org/2000/svg">
<path d="M2.43243 9.6C1.08649 9.6 0 10.672 0 12C0 13.328 1.08649 14.4 2.43243 14.4C3.77838 14.4 4.86486 13.328 4.86486 12C4.86486 10.672 3.77838 9.6 2.43243 9.6ZM2.43243 0C1.08649 0 0 1.072 0 2.4C0 3.728 1.08649 4.8 2.43243 4.8C3.77838 4.8 4.86486 3.728 4.86486 2.4C4.86486 1.072 3.77838 0 2.43243 0ZM2.43243 19.2C1.08649 19.2 0 20.288 0 21.6C0 22.912 1.1027 24 2.43243 24C3.76216 24 4.86486 22.912 4.86486 21.6C4.86486 20.288 3.77838 19.2 2.43243 19.2ZM7.2973 23.2H30V20H7.2973V23.2ZM7.2973 13.6H30V10.4H7.2973V13.6ZM7.2973 0.8V4H30V0.8H7.2973Z" fill="#BDE1E9"/>
</svg>
