<svg width="34" height="34" viewBox="0 0 34 34" fill="none" xmlns="http://www.w3.org/2000/svg">
<path d="M29.7502 18.6247C29.8145 18.1038 29.8574 17.5622 29.8574 16.9997C29.8574 16.4372 29.8145 15.8955 29.7288 15.3747L33.3503 12.6247C33.6717 12.3747 33.7575 11.9163 33.5646 11.5622L30.1359 5.79134C29.9216 5.41634 29.4716 5.29134 29.0859 5.41634L24.8215 7.08301C23.9215 6.41634 22.9786 5.87467 21.9286 5.45801L21.2857 1.04134C21.2214 0.624674 20.8572 0.333008 20.4286 0.333008H13.5713C13.1427 0.333008 12.7998 0.624674 12.7355 1.04134L12.0927 5.45801C11.0426 5.87467 10.0783 6.43717 9.19974 7.08301L4.93535 5.41634C4.54963 5.27051 4.09962 5.41634 3.88533 5.79134L0.456673 11.5622C0.242383 11.9372 0.328099 12.3747 0.670964 12.6247L4.29248 15.3747C4.20676 15.8955 4.14247 16.458 4.14247 16.9997C4.14247 17.5413 4.18533 18.1038 4.27105 18.6247L0.649535 21.3747C0.328099 21.6247 0.242383 22.083 0.435244 22.4372L3.8639 28.208C4.07819 28.583 4.5282 28.708 4.91392 28.583L9.17831 26.9163C10.0783 27.583 11.0212 28.1247 12.0712 28.5413L12.7141 32.958C12.7998 33.3747 13.1427 33.6663 13.5713 33.6663H20.4286C20.8572 33.6663 21.2214 33.3747 21.2643 32.958L21.9072 28.5413C22.9572 28.1247 23.9215 27.5622 24.8001 26.9163L29.0645 28.583C29.4502 28.7288 29.9002 28.583 30.1145 28.208L33.5432 22.4372C33.7575 22.0622 33.6717 21.6247 33.3289 21.3747L29.7502 18.6247ZM16.9999 23.2497C13.4641 23.2497 10.5712 20.4372 10.5712 16.9997C10.5712 13.5622 13.4641 10.7497 16.9999 10.7497C20.5357 10.7497 23.4286 13.5622 23.4286 16.9997C23.4286 20.4372 20.5357 23.2497 16.9999 23.2497Z" fill="#E6FFF6"/>
</svg>
