<svg width="11" height="11" viewBox="0 0 11 11" fill="none" xmlns="http://www.w3.org/2000/svg">
<path d="M3.41667 4C3.52717 4 3.63315 4.0301 3.71129 4.08368C3.78943 4.13727 3.83333 4.20994 3.83333 4.28571V7.71429C3.83333 7.79006 3.78943 7.86273 3.71129 7.91632C3.63315 7.9699 3.52717 8 3.41667 8C3.30616 8 3.20018 7.9699 3.12204 7.91632C3.0439 7.86273 3 7.79006 3 7.71429V4.28571C3 4.20994 3.0439 4.13727 3.12204 4.08368C3.20018 4.0301 3.30616 4 3.41667 4V4ZM5.5 4C5.61051 4 5.71649 4.0301 5.79463 4.08368C5.87277 4.13727 5.91667 4.20994 5.91667 4.28571V7.71429C5.91667 7.79006 5.87277 7.86273 5.79463 7.91632C5.71649 7.9699 5.61051 8 5.5 8C5.38949 8 5.28351 7.9699 5.20537 7.91632C5.12723 7.86273 5.08333 7.79006 5.08333 7.71429V4.28571C5.08333 4.20994 5.12723 4.13727 5.20537 4.08368C5.28351 4.0301 5.38949 4 5.5 4V4ZM8 4.28571C8 4.20994 7.9561 4.13727 7.87796 4.08368C7.79982 4.0301 7.69384 4 7.58333 4C7.47283 4 7.36685 4.0301 7.28871 4.08368C7.21056 4.13727 7.16667 4.20994 7.16667 4.28571V7.71429C7.16667 7.79006 7.21056 7.86273 7.28871 7.91632C7.36685 7.9699 7.47283 8 7.58333 8C7.69384 8 7.79982 7.9699 7.87796 7.91632C7.9561 7.86273 8 7.79006 8 7.71429V4.28571Z" fill="#CB5050"/>
<path fill-rule="evenodd" clip-rule="evenodd" d="M9.96875 2.0625C9.96875 2.24484 9.89632 2.4197 9.76739 2.54864C9.63845 2.67757 9.46359 2.75 9.28125 2.75H8.9375V8.9375C8.9375 9.30217 8.79263 9.65191 8.53477 9.90977C8.27691 10.1676 7.92717 10.3125 7.5625 10.3125H3.4375C3.07283 10.3125 2.72309 10.1676 2.46523 9.90977C2.20737 9.65191 2.0625 9.30217 2.0625 8.9375V2.75H1.71875C1.53641 2.75 1.36155 2.67757 1.23261 2.54864C1.10368 2.4197 1.03125 2.24484 1.03125 2.0625V1.375C1.03125 1.19266 1.10368 1.0178 1.23261 0.888864C1.36155 0.759933 1.53641 0.6875 1.71875 0.6875H4.125C4.125 0.505164 4.19743 0.330295 4.32636 0.201364C4.4553 0.0724328 4.63016 0 4.8125 0L6.1875 0C6.36984 0 6.5447 0.0724328 6.67364 0.201364C6.80257 0.330295 6.875 0.505164 6.875 0.6875H9.28125C9.46359 0.6875 9.63845 0.759933 9.76739 0.888864C9.89632 1.0178 9.96875 1.19266 9.96875 1.375V2.0625ZM2.83113 2.75L2.75 2.79056V8.9375C2.75 9.11984 2.82243 9.2947 2.95136 9.42364C3.0803 9.55257 3.25516 9.625 3.4375 9.625H7.5625C7.74484 9.625 7.9197 9.55257 8.04864 9.42364C8.17757 9.2947 8.25 9.11984 8.25 8.9375V2.79056L8.16887 2.75H2.83113ZM1.71875 2.0625V1.375H9.28125V2.0625H1.71875Z" fill="#CB5050"/>
</svg>
